<svg xmlns="http://www.w3.org/2000/svg" xmlns:xlink="http://www.w3.org/1999/xlink" width="140.103" height="42" viewBox="0 0 140.103 42">
  <defs>
    <linearGradient id="linear-gradient" x1="0.5" y1="1" x2="0.5" gradientUnits="objectBoundingBox">
      <stop offset="0.26" stop-color="#e30613"/>
      <stop offset="0.39" stop-color="#d90918"/>
      <stop offset="0.62" stop-color="#bf1224"/>
      <stop offset="0.91" stop-color="#952037"/>
      <stop offset="0.94" stop-color="#912139"/>
    </linearGradient>
    <linearGradient id="linear-gradient-2" x1="1" y1="0.5" x2="0.001" y2="0.5" xlink:href="#linear-gradient"/>
    <linearGradient id="linear-gradient-3" x1="0.006" y1="0.5" x2="0.995" y2="0.5" xlink:href="#linear-gradient"/>
  </defs>
  <g id="Layer_2" data-name="Layer 2" transform="translate(113.265 -67.908)">
    <g id="Vrstva_1" data-name="Vrstva 1" transform="translate(-113.265 67.908)">
      <g id="Group_5" data-name="Group 5" transform="translate(80.775 5.539)">
        <path id="Path_4" data-name="Path 4" d="M6.357,363.731,9.3,356.36h3.43L7.548,368.495H5.1L0,356.36H3.428Z" transform="translate(0 -356.36)" fill="#1d1d1b"/>
        <path id="Path_5" data-name="Path 5" d="M203.064,368.495H199.91V356.36h3.154Z" transform="translate(-179.315 -356.36)" fill="#1d1d1b"/>
        <path id="Path_6" data-name="Path 6" d="M322.392,365.823v2.671H312l5.744-9.462h-4.767V356.36h10.045l-5.714,9.463Z" transform="translate(-279.858 -356.36)" fill="#1d1d1b"/>
        <path id="Path_7" data-name="Path 7" d="M495.552,359.032v2.029h3.556v2.671h-3.556v2.092h3.75V368.5h-6.9V356.36h6.9v2.672Z" transform="translate(-441.673 -356.36)" fill="#1d1d1b"/>
        <path id="Path_8" data-name="Path 8" d="M24.2,528.285v2.671H14.45l4.957-5.391a4.724,4.724,0,0,0,1.384-2.977,1.5,1.5,0,0,0-1.385-1.577,1.33,1.33,0,0,0-1.32,1.48,2.952,2.952,0,0,0,.048.515H14.659a4.489,4.489,0,0,1,4.733-4.667,4.373,4.373,0,0,1,4.682,4.312,4.811,4.811,0,0,1-1.963,3.879l-1.884,1.751Z" transform="translate(-12.961 -501.653)" fill="#e40521"/>
        <path id="Path_9" data-name="Path 9" d="M175.512,524.89c0,3.154-1.529,6.549-5.151,6.549s-5.151-3.4-5.151-6.549,1.545-6.55,5.151-6.55S175.512,521.735,175.512,524.89Zm-7.162-.016c0,1.174.387,3.782,2.012,3.782s2.012-2.607,2.012-3.782-.386-3.75-2.012-3.75S168.35,523.7,168.35,524.873Z" transform="translate(-148.19 -501.653)" fill="#e40521"/>
        <path id="Path_10" data-name="Path 10" d="M318.927,522.314a4.386,4.386,0,0,1,1.417-2.929,4.552,4.552,0,0,1,3.091-1.046c2.173,0,3.879,1.255,3.879,3.524a2.8,2.8,0,0,1-1.271,2.494,3.112,3.112,0,0,1,1.979,3.059c0,2.655-2.3,4.018-4.715,4.018a4.844,4.844,0,0,1-3.62-1.367,4.741,4.741,0,0,1-1.385-3.058h3.218a1.657,1.657,0,0,0,1.689,1.721,1.589,1.589,0,0,0,1.691-1.625,1.663,1.663,0,0,0-1.673-1.627,2.05,2.05,0,0,0-.548.1v-2.1H323a1.28,1.28,0,0,0,1.384-1.339,1.178,1.178,0,0,0-1.236-1.223,1.273,1.273,0,0,0-1.288,1.4Z" transform="translate(-285.509 -501.653)" fill="#e40521"/>
        <path id="Path_11" data-name="Path 11" d="M486.192,524.89c0,3.154-1.529,6.549-5.151,6.549s-5.151-3.4-5.151-6.549,1.545-6.55,5.151-6.55S486.192,521.735,486.192,524.89Zm-7.162-.016c0,1.174.387,3.782,2.012,3.782s2.012-2.607,2.012-3.782-.386-3.75-2.012-3.75S479.03,523.7,479.03,524.873Z" transform="translate(-426.864 -501.653)" fill="#e40521"/>
      </g>
      <g id="Layer_2-2" data-name="Layer 2" transform="translate(0 0)">
        <g id="Vrstva_1-2" data-name="Vrstva 1" transform="translate(0)">
          <path id="Path_12" data-name="Path 12" d="M140.553,41.3a14.676,14.676,0,0,1-21.768-18.141,1.856,1.856,0,0,1,.089-.169l3.207-5.472,1.272,5.585-1.045,1.782a10.639,10.639,0,0,0-.942,4.41,10.75,10.75,0,0,0,16.064,9.349A15.9,15.9,0,0,0,140.553,41.3Zm4.9-18.144a1.62,1.62,0,0,0-.088-.166L133.813,3.273a1.961,1.961,0,0,0-3.384,0L127.074,9l1.272,5.584,3.774-6.441,9.819,16.747A10.76,10.76,0,0,1,142,33.568a9.259,9.259,0,0,0,3.119,2.56,14.675,14.675,0,0,0,.344-12.969Z" transform="translate(-100.229 -1.967)" fill="url(#linear-gradient)"/>
          <path id="Path_13" data-name="Path 13" d="M263.551,21.422a14.48,14.48,0,0,0-3.132-5.449,1.611,1.611,0,0,0-.133-.132L243.327.52A1.961,1.961,0,0,0,240.1,1.546l-1.2,5.276,2.9,4.943,1.386-6.087,14.4,13.013a10.6,10.6,0,0,1,2.223,3.912A10.755,10.755,0,1,1,239.3,29.086a10.643,10.643,0,0,1-.431-4.489l.733-3.205-2.9-4.945-1.68,7.378c-.015.062-.025.125-.034.188a14.68,14.68,0,1,0,28.564-2.59Z" transform="translate(-200.451 -0.016)" fill="url(#linear-gradient-2)"/>
          <path id="Path_14" data-name="Path 14" d="M29.23,24a1.622,1.622,0,0,0-.034-.188L24.121,1.531A1.961,1.961,0,0,0,20.9.513L3.937,15.836a1.612,1.612,0,0,0-.133.132A14.5,14.5,0,0,0,.672,21.415a14.668,14.668,0,0,0,20.24,17.694,16.105,16.105,0,0,1-2.622-3.151A10.754,10.754,0,0,1,6.638,18.677l14.4-13.013,4.31,18.925a10.785,10.785,0,0,1-1.7,7.156,9.413,9.413,0,0,0,2.631,3.06A14.692,14.692,0,0,0,29.23,24Z" transform="translate(0.013 -0.008)" fill="url(#linear-gradient-3)"/>
        </g>
      </g>
    </g>
  </g>
</svg>